<?xml version="1.0" encoding="utf-8"?>
<!-- Generator: Adobe Illustrator 25.0.1, SVG Export Plug-In . SVG Version: 6.00 Build 0)  -->
<svg version="1.1" id="レイヤー_1" xmlns="http://www.w3.org/2000/svg" xmlns:xlink="http://www.w3.org/1999/xlink" x="0px"
	 y="0px" viewBox="0 0 323.46 108.26" style="enable-background:new 0 0 323.46 108.26;" xml:space="preserve">
<style type="text/css">
	.st0{fill:#FFFFFF;}
</style>
<path class="st0" d="M151.5,48.09c-2.42,1.4-4.49,2.83-6.78,3.87c-3.68,1.66-8.36-1.07-8.74-5.21c-0.31-3.42-0.2-6.9,0.03-10.33
	c0.08-1.23,1.04-2.43,1.66-3.62c0.15-0.29,0.53-0.53,0.87-0.71c2.23-1.23,6.84,0.02,7.43,2.26c0.6,2.28,0.59,4.68,0.77,7.04
	c0.07,0.84-0.08,1.7-0.14,2.87c1.89-1.34,3.31-2.5,3.45-4.52c0.07-1,0.22-2.05,0.65-2.96c1.01-2.12,4.42-3.22,7.31-2.49
	c1.54,0.39,3.06,2.85,2.91,4.8c-0.1,1.2-0.3,2.4-0.5,4c0.82-0.52,1.35-0.83,1.85-1.18c3.17-2.22,6.31-4.48,9.51-6.66
	c2.16-1.48,2.87-1.29,4.38,0.68c0.95,1.24,0.64,2.11-0.62,2.97c-3.51,2.4-6.85,5.02-10.51,7.22c-2.32,1.39-5.01,2.36-7.66,3.21
	C155.11,50.02,152.99,49.26,151.5,48.09z"/>
<path class="st0" d="M313.94,20c-9.61-0.95-19.19-0.99-28.74,0.54c-9.15,1.46-18.32,2.81-27.47,4.25
	c-11.73,1.85-23.46,3.74-35.19,5.6c-0.4,0.06-0.81,0.05-1.5,0.09c0.92-0.71,1.65-1.2,2.27-1.77c2.35-2.15,2.84-4.69,1.44-7.1
	c-1.33-2.29-3.45-3.07-6.95-2.64c-2.01,0.25-4.04,0.42-6.19,0.64c2-2.05,3.88-4.01,5.8-5.94c2.46-2.49,3.11-5.53,3.06-8.66
	c-0.06-3.08-3.57-5.42-6.86-4.94c-10.05,1.48-19.73,4.16-29.28,7.21h0c0,0-6.87,1.41-4.21,5.83c2.66,4.43,6.96,2.78,10.12,0
	c2.16-1.9,6.34-3.93,8.76-5.02c3.35-0.85,6.75-1.57,10.12-2.36c0.15,0.13,0.3,0.26,0.45,0.4c-0.58,1.11-0.96,2.34-1.77,3.3
	c-3.96,4.66-8.91,8.41-14.11,11.92c-1.96,1.33-2.67,4.03-1.51,5.54c1.43,1.87,4.57,2.68,6.66,1.42c2.64-1.59,5.62-2.17,8.61-2.79
	c1.89-0.39,3.79-0.73,5.68-1.1c-1.24,1.3-2.66,2.23-4.02,3.21c-2.2,1.59-4.24,3.4-6.6,4.78c-2.39,1.39-4.82,2.82-7.79,3.29
	c-1.72,0.27-3.1,1.22-3.45,3c-0.08,0.42-0.6,0.93-1.06,1.13c-6.43,2.77-12.65,5.84-18.47,9.56c-8.08,5.14-16.31,10.09-23.14,16.62
	c-0.44,0.42-1.27,0.67-1.94,0.73c-9.47,0.88-18.95,1.71-28.43,2.55c-1.04,0.09-2.08,0.22-3.32,0.35c0.48-3.75,0.93-7.28,1.41-10.8
	c0.04-0.32,0.28-0.67,0.54-0.9c2.14-1.89,4.26-3.8,6.48-5.61c3.49-2.85,4.6-6.39,3.59-10.37c-0.91-3.59-3.72-5.48-7.77-6.21
	c-1.12-0.2-2.85-0.34-3.15-1.87c-0.41-2.04-0.52-4.15-1.12-6.15c-0.98-3.26-2.24-6.45-3.44-9.65c-0.25-0.66-0.92-1.21-1.07-1.88
	c-0.56-2.46-2.38-4.15-4.38-5.67c-2.21-1.67-5.49-0.97-6.63,1.35c-1.51,3.08,0.4,5.64,1.77,8.25c0.33,0.63,0.93,1.18,1.13,1.84
	c0.94,3.11,1.83,6.24,2.63,9.38c0.24,0.95,0.13,1.97,0.19,2.99c-1.97,0.01-3.73,0.06-5.49,0.02c-4.39-0.09-8.77-0.32-13.16-0.31
	c-6.43,0.01-12.85,0.16-19.18,1.39c-3.53,0.69-7.16,1.04-10.65,1.86c-4.2,0.99-7.79,3.05-10.95,5.73c-1.97,1.67-2.9,3.65-3.32,6
	c-1.04,5.79,7.29,12.59,12.53,13.35c2.26,0.33,2.94-0.13,3.43-2.35c0.43-1.95,0.02-2.76-2.27-2.93c-3.61-0.26-5.49-2.45-7.37-4.67
	c-1.23-1.45-1.19-3.91,0.07-5.14c2.34-2.28,5.07-4.23,8.48-4.94c6.19-1.29,12.41-2.53,18.82-2.53c8.15,0,16.3,0.04,24.45,0.1
	c1.7,0.01,3.4,0.16,5.31,0.26c-0.02,4.28-0.08,8.48-0.04,12.68c0.01,1.37-0.62,2.18-1.87,2.95c-0.38,0.23-0.77,0.46-1.15,0.69
	l0.01,0C58.82,85.64,8.9,92.18,8.15,92.28c-2.32,1.06-4.57,2.25-6.77,3.49C0.7,96.15,0.38,97.2,0.12,98
	c-0.55,1.66,0.91,2.57,1.89,3.66c1.61,1.78,3.05,2.01,5.35,0.95c15.38-8.3,65.54-26.37,95.74-26.37c-0.38,2.97-0.54,5.71-1.12,8.39
	c-1.22,5.63-2.69,11.22-3.98,16.83c-1.15,5.02-0.9,5.32,4.63,6.61c2.1,0.49,3.45-0.02,4.23-1.82c1.03-2.36,2.08-4.74,2.85-7.17
	c2.36-7.46,3.48-15.13,4.33-22.82c0.13-1.19,0.62-1.61,1.95-1.72c6.48-0.52,12.94-1.12,19.41-1.69c2.57-0.22,5.15-0.41,8.14-0.65
	c-2.87,3.11-2.87,6.5-2.95,9.85c-0.16,6.21,1.86,11.59,7.45,15.66c2.95,2.15,5.82,4.35,9.31,5.86c2.69,1.16,5.27,2.36,8.31,2.58
	c2.21,0.16,4.41,0.69,6.62,0.73c3.63,0.07,7.37,0.32,10.89-0.29c7.27-1.25,13.31-4.76,18.27-9.59c4.11-4.01,7.95-8.23,11.91-12.37
	c6.54-6.84,13.07-13.68,17.68-21.77c0.54-0.95,1.07-1.91,1.73-2.78c0.25-0.34,0.84-0.59,1.32-0.66c3.42-0.49,6.84-0.95,10.27-1.37
	c2.97-0.37,5.96-0.69,8.38-0.97c1.32,1.79,2.27,3.12,3.28,4.42c0.85,1.1,2.09,1.27,3.33,0.75c1.38-0.58,2.75-1.26,3.96-2.08
	c2.07-1.4,2.62-4.34,1.4-6.53c-1.15-2.05-3.12-2.74-6.09-2.13c-0.44,0.09-0.9,0.14-1.35,0.18c-6.83,0.62-13.76,0.64-20.45,2.29
	c-0.31,0.08-0.66,0.01-0.98,0.01c0.29-2.23,0.68-4.38,0.82-6.54c0.45-6.99-4.14-11.3-11.82-11.24c-1.63,0.01-3.25-0.06-4.88-0.1
	c0.56-0.33,1.14-0.49,1.73-0.59c5.15-0.88,10.29-1.84,15.46-2.62c11.41-1.73,22.84-3.36,34.26-5.04c4.76-0.7,9.5-1.55,14.27-2.18
	l0,0c12.8-1.95,28.86-3.21,28.86,2.23c0,5.44-7.54,6.72-7.54,6.72c-1.64,0.97-2.13,2.61-1.61,4.92c0.35,1.56,2.18,2.57,4.71,2.4
	c0.85-0.06,1.68-0.52,2.5-0.84c0.51-0.2,0.95-0.57,1.47-0.7c3.1-0.76,5.39-2.37,7.37-4.65C326.96,29.4,320.1,20.61,313.94,20z
	 M103.69,70.92c-0.04,0.21-0.7,0.42-1.11,0.48c-4.44,0.67-8.88,1.3-13.86,2.03c5.42-2.61,10.42-5.02,15.67-7.55
	C104.17,67.59,104,69.27,103.69,70.92z M209.32,74.17c-5.4,5.9-11,11.65-16.57,17.43c-3.81,3.95-8.58,6.7-14.12,8.27
	c-1.91,0.54-4.06,0.68-6.07,0.6c-3.81-0.14-7.73-0.13-11.36-1c-3.71-0.89-6.72-3.26-9.71-5.51c-4.23-3.2-5.34-7.31-5.48-11.97
	c-0.11-3.75,1.39-6.83,3.98-9.59c0.46-0.49,1.41-0.77,2.18-0.86c13.05-1.58,26.14-2.9,39.14-4.73c8.6-1.21,17.08-3.14,25.61-4.75
	c0.71-0.13,1.43-0.23,2.14-0.35c0.13,0.13,0.26,0.27,0.39,0.4C216.09,66.15,212.88,70.28,209.32,74.17z M221.86,41.76
	c2.15-0.22,3.21,1.03,3.37,2.49c0.43,3.86,0.25,7.71-2.14,11.17c-0.26,0.38-0.83,0.73-1.31,0.81c-14.03,2.49-28.04,5.11-42.13,7.32
	c-7.34,1.15-14.84,1.56-22.26,2.3c-0.15,0.01-0.31-0.05-0.86-0.16c12.65-9.03,25.17-17.73,40.17-22.96
	c0.13,0.18,0.26,0.36,0.39,0.54c-1.71,0.94-3.39,1.93-5.13,2.82c-2.14,1.09-4.79,4.3-2.17,5.98c1.27,0.82,3.33,1.18,4.91,0.98
	c2.17-0.28,4.2-1.35,6.32-1.98c4.43-1.33,7.6-4.38,11.42-6.53c0.47-0.27,0.98-0.6,1.26-1.02c1.45-2.19,3.75-2.14,6.12-1.94
	C220.5,41.66,221.19,41.83,221.86,41.76z"/>
<ellipse transform="matrix(0.9769 -0.2137 0.2137 0.9769 -3.102 64.5966)" class="st0" cx="297.23" cy="46.65" rx="3.87" ry="4.93"/>
</svg>
