<?xml version="1.0" encoding="utf-8"?>
<!-- Generator: Adobe Illustrator 25.2.0, SVG Export Plug-In . SVG Version: 6.00 Build 0)  -->
<svg version="1.1" id="レイヤー_1" xmlns="http://www.w3.org/2000/svg" xmlns:xlink="http://www.w3.org/1999/xlink" x="0px"
	 y="0px" viewBox="0 0 199.58 203.49" style="enable-background:new 0 0 199.58 203.49;" xml:space="preserve">
<style type="text/css">
	.st0{fill:#FFFFFF;}
</style>
<path class="st0" d="M174.73,28.6C143.11-1.53,92.95-0.04,90.83,0.03L78.82,0.47C76.47,0.56,74.6,2.5,74.6,4.85v111.7
	c0,2.21,1.63,4.07,3.82,4.35c5.35,0.68,10.89,1.08,16.55,1.08c3.13,0,6.24-0.14,9.31-0.38c2.28-0.18,4.04-2.09,4.04-4.38V39.64
	c0-2.75,2.5-4.81,5.21-4.31c12.23,2.27,27.2,7.11,37.91,17.37c9.7,9.29,14.42,21.7,14.42,37.92c0,34.03-37.91,42.56-54.2,44.65
	c-39.16,5.03-75.36-4.83-80.08-22.55c-2.26-8.49-0.09-13.06,1.75-15.77c5.3-7.82,17.46-12.61,26.53-15.07
	c1.92-0.52,3.25-2.25,3.25-4.23V55.94c0-2.78-2.55-4.87-5.27-4.29c-12.39,2.62-36.78,9.97-49.55,28.66
	c-7.89,11.55-9.96,25.51-6,40.37c8.58,32.19,47.58,48.93,93.18,48.93c6.93,0,13.83-0.43,20.53-1.28
	c51.56-6.6,83.59-36.38,83.59-77.71C199.58,65.17,191.22,44.3,174.73,28.6z"/>
<g>
	<path class="st0" d="M10.45,196.11c-0.99,1.04-2.31,1.63-3.86,1.63c-3.97,0-6.59-3.24-6.59-7.41c0-4.17,2.62-7.38,6.62-7.38
		c1.55,0,2.85,0.56,3.83,1.64v-6.59h4.59v19.44h-4.59V196.11z M7.61,187.46c-1.66,0-2.87,1.33-2.87,2.87c0,1.55,1.21,2.9,2.87,2.9
		c1.66,0,2.85-1.35,2.85-2.9C10.45,188.78,9.27,187.46,7.61,187.46z"/>
	<path class="st0" d="M22.52,184.59c0.68-0.93,1.72-1.64,3.21-1.64c0.28,0,0.76,0.03,1.07,0.08v4.85c-0.59-0.25-1.32-0.45-2.25-0.45
		c-1.07,0-1.94,0.68-2.03,1.89v8.11h-4.59v-14.2h4.59V184.59z"/>
	<path class="st0" d="M29.28,183.71c1.01-0.39,2.68-0.76,4.14-0.76c4.11,0,6.31,1.95,6.31,6.2v8.28h-4.59v-0.82
		c-0.68,0.7-1.66,1.13-2.9,1.13c-3.16,0-4.54-2.25-4.54-4.56c0-2.48,1.77-4.51,4.62-4.51c1.04,0,2.09,0.28,2.82,0.73v-0.37
		c0-1.44-0.9-2.03-2.28-2.03c-1.21,0-2.54,0.39-3.58,0.99V183.71z M33.65,194.45c0.85,0,1.44-0.56,1.44-1.27s-0.59-1.27-1.44-1.27
		c-0.82,0-1.44,0.56-1.44,1.27S32.83,194.45,33.65,194.45z"/>
	<path class="st0" d="M45.88,183.23l2.11,8.62l2.09-6.59l-0.71-2.03h4.54l2.73,8.62l2.03-8.62h4.76l-4.14,14.2H54.5l-2.25-6.9
		l-2.2,6.9h-4.82l-4.11-14.2H45.88z"/>
	<path class="st0" d="M69.53,197.43h-4.59v-19.44h4.59V197.43z"/>
	<path class="st0" d="M74.69,176.64c1.52,0,2.62,1.18,2.62,2.62c0,1.49-1.1,2.62-2.62,2.62c-1.49,0-2.62-1.13-2.62-2.62
		C72.07,177.82,73.19,176.64,74.69,176.64z M77,197.43h-4.59v-14.2H77V197.43z"/>
	<path class="st0" d="M84.47,184.81c0.73-1.07,1.83-1.86,3.47-1.86c2.93,0,4.85,2.23,4.85,5.18v9.3h-4.59v-7.95
		c0-1.27-0.73-2.06-1.86-2.06c-1.07,0-1.8,0.68-1.86,1.89v8.11h-4.59v-14.2h4.59V184.81z"/>
	<path class="st0" d="M99.38,191.71c0.34,1.21,1.52,1.92,3.18,1.92c1.66,0,3.33-0.37,4.68-1.13v4.31c-1.3,0.62-3.1,0.93-5.07,0.93
		c-4.25,0-7.38-2.93-7.38-7.41c0-4.17,2.99-7.38,7.1-7.38c4.14,0,6.54,3.1,6.54,6.65c0,0.7-0.11,1.61-0.25,2.11H99.38z M99.35,188.3
		h4.7c-0.08-0.93-0.93-1.58-2.2-1.58C100.56,186.73,99.58,187.46,99.35,188.3z"/>
	<path class="st0" d="M112.91,191.66c1.75,0,3.04,1.3,3.04,3.04c0,1.75-1.3,3.01-3.04,3.01c-1.75,0-3.01-1.27-3.01-3.01
		C109.89,192.95,111.16,191.66,112.91,191.66z"/>
	<path class="st0" d="M127.96,196.11c-0.99,1.04-2.31,1.63-3.86,1.63c-3.97,0-6.59-3.24-6.59-7.41c0-4.17,2.62-7.38,6.62-7.38
		c1.55,0,2.85,0.56,3.83,1.64v-6.59h4.59v19.44h-4.59V196.11z M125.11,187.46c-1.66,0-2.87,1.33-2.87,2.87c0,1.55,1.21,2.9,2.87,2.9
		c1.66,0,2.85-1.35,2.85-2.9C127.96,188.78,126.77,187.46,125.11,187.46z"/>
	<path class="st0" d="M139.26,191.71c0.34,1.21,1.52,1.92,3.18,1.92c1.66,0,3.33-0.37,4.68-1.13v4.31c-1.3,0.62-3.1,0.93-5.07,0.93
		c-4.25,0-7.38-2.93-7.38-7.41c0-4.17,2.99-7.38,7.1-7.38c4.14,0,6.54,3.1,6.54,6.65c0,0.7-0.11,1.61-0.25,2.11H139.26z
		 M139.23,188.3h4.71c-0.08-0.93-0.93-1.58-2.2-1.58C140.44,186.73,139.46,187.46,139.23,188.3z"/>
	<path class="st0" d="M158.54,187.77c-0.87-0.48-2.17-0.87-3.04-0.87c-0.7,0-0.96,0.34-0.96,0.65c0,0.31,0.22,0.48,0.62,0.73
		l1.83,1.04c1.63,0.99,2.28,2.4,2.28,3.92c0,2.48-1.78,4.51-5.38,4.51c-1.18,0-2.65-0.22-3.69-0.62v-4.51
		c0.62,0.56,2.37,1.24,3.35,1.24c0.68,0,0.99-0.31,0.99-0.7c0-0.31-0.2-0.59-0.7-0.87l-2-1.16c-1.49-0.84-2.03-2.31-2.03-3.75
		c0-2.65,2.03-4.43,5.49-4.43c0.93,0,2.28,0.14,3.24,0.39V187.77z"/>
	<path class="st0" d="M163.78,176.64c1.52,0,2.62,1.18,2.62,2.62c0,1.49-1.1,2.62-2.62,2.62c-1.49,0-2.62-1.13-2.62-2.62
		C161.16,177.82,162.29,176.64,163.78,176.64z M166.09,197.43h-4.59v-14.2h4.59V197.43z"/>
	<path class="st0" d="M183.42,183.23v12.17c0,5.52-2.99,8.09-8.14,8.09c-1.94,0-3.77-0.51-4.65-0.98v-4.68
		c1.24,0.79,3.1,1.38,4.65,1.38c2.09,0,3.55-1.13,3.55-3.16v-0.37c-0.96,0.96-2.31,1.63-4.06,1.63c-3.86,0-6.54-3.07-6.54-7.16
		c0-4.08,2.68-7.21,6.51-7.21c1.78,0,3.13,0.68,4.09,1.72v-1.44H183.42z M175.84,187.43c-1.55,0-2.7,1.24-2.7,2.7
		c0,1.49,1.16,2.7,2.7,2.7c1.58,0,2.7-1.21,2.7-2.7C178.55,188.67,177.42,187.43,175.84,187.43z"/>
	<path class="st0" d="M190.95,184.81c0.73-1.07,1.83-1.86,3.47-1.86c2.93,0,4.85,2.23,4.85,5.18v9.3h-4.59v-7.95
		c0-1.27-0.73-2.06-1.86-2.06c-1.07,0-1.8,0.68-1.86,1.89v8.11h-4.59v-14.2h4.59V184.81z"/>
</g>
<g>
</g>
<g>
</g>
<g>
</g>
<g>
</g>
<g>
</g>
<g>
</g>
</svg>
